<svg xmlns="http://www.w3.org/2000/svg" width="512" height="512" viewBox="0 0 512 512">
  <rect x="58" y="146" width="396" height="220" rx="34" fill="#fff8e6" stroke="#d6e5dd" stroke-width="14"/>
  <rect x="78" y="186" width="356" height="32" rx="16" fill="#ffcf66"/>
  <rect x="78" y="226" width="356" height="32" rx="16" fill="#8fd6a3"/>
  <rect x="78" y="266" width="356" height="32" rx="16" fill="#86b8ff"/>
  <rect x="78" y="306" width="356" height="32" rx="16" fill="#ffb7b7"/>
  <g fill="#3a675e">
    <rect x="118" y="166" width="8" height="78" rx="4"/><rect x="164" y="166" width="8" height="54" rx="4"/>
    <rect x="210" y="166" width="8" height="78" rx="4"/><rect x="256" y="166" width="8" height="54" rx="4"/>
    <rect x="302" y="166" width="8" height="78" rx="4"/><rect x="348" y="166" width="8" height="54" rx="4"/>
    <rect x="394" y="166" width="8" height="78" rx="4"/>
  </g>
  <circle cx="114" cy="118" r="34" fill="#ffd870"/><text x="114" y="129" text-anchor="middle" font-size="34" font-family="Arial" fill="#7a5a00">★</text>
</svg>